<svg height="512" viewBox="0 0 128 128" width="512" xmlns="http://www.w3.org/2000/svg"><g><path d="m121.5 6.525c-35.3-.882-95.727 21.475-91.025 86.502 29.925 8.994 51.275 5.973 68.525-29.027 11.736-23.813 22.5-57.475 22.5-57.475z" fill="#9adb07"/><g fill="#8ec100"><path d="m55.193 93.088a1.75 1.75 0 0 1 0-3.5 35.127 35.127 0 0 0 10.47-1.476 1.75 1.75 0 1 1 1.029 3.346 38.56 38.56 0 0 1 -11.499 1.63z"/><path d="m6.5 123.25a1.75 1.75 0 0 1 -1.409-2.786c.439-.6 44.464-60.189 92.862-96.366a1.75 1.75 0 0 1 2.1 2.8c-47.986 35.869-91.7 95.04-92.138 95.634a1.746 1.746 0 0 1 -1.415.718z"/><path d="m50.966 70.829a1.817 1.817 0 0 1 -.194-.011 1.75 1.75 0 0 1 -1.547-1.931c.074-.677 1.876-16.66 6.142-23.9a1.751 1.751 0 1 1 3.016 1.778c-3.883 6.592-5.662 22.347-5.683 22.506a1.75 1.75 0 0 1 -1.734 1.558z"/><path d="m74.553 47.625a1.8 1.8 0 0 1 -.193-.01 1.75 1.75 0 0 1 -1.549-1.93c.055-.5 1.375-12.319 4.515-19.164a1.75 1.75 0 1 1 3.181 1.458c-2.906 6.336-4.2 17.969-4.216 18.086a1.752 1.752 0 0 1 -1.738 1.56z"/><path d="m86.044 60.918c-2.177 0-14.632-.181-22.175-4.191a1.75 1.75 0 0 1 1.642-3.091c7.318 3.891 20.667 3.78 20.8 3.781a1.777 1.777 0 0 1 1.77 1.729 1.75 1.75 0 0 1 -1.729 1.771z"/></g></g></svg>